<mxfile host="65bd71144e">
    <diagram id="p-uwEpWHGDIkwYEjgpxO" name="第 1 页">
        <mxGraphModel dx="750" dy="614" grid="1" gridSize="10" guides="1" tooltips="1" connect="1" arrows="1" fold="1" page="1" pageScale="1" pageWidth="583" pageHeight="827" math="0" shadow="0">
            <root>
                <mxCell id="0"/>
                <mxCell id="1" parent="0"/>
                <mxCell id="2" value="" style="rounded=0;whiteSpace=wrap;html=1;" parent="1" vertex="1">
                    <mxGeometry x="120" y="320" width="310" height="50" as="geometry"/>
                </mxCell>
                <mxCell id="5" value="&lt;font style=&quot;font-size: 24px&quot;&gt;&amp;nbsp; A&lt;span style=&quot;white-space: pre&quot;&gt;&#9;&lt;/span&gt;&lt;/font&gt;" style="text;html=1;resizable=0;autosize=1;align=center;verticalAlign=middle;points=[];fillColor=none;strokeColor=none;rounded=0;" parent="1" vertex="1">
                    <mxGeometry x="35" y="335" width="70" height="20" as="geometry"/>
                </mxCell>
                <mxCell id="7" value="" style="rounded=0;whiteSpace=wrap;html=1;" parent="1" vertex="1">
                    <mxGeometry x="120" y="151.6" width="310" height="50" as="geometry"/>
                </mxCell>
                <mxCell id="8" value="" style="rounded=0;whiteSpace=wrap;html=1;" parent="1" vertex="1">
                    <mxGeometry x="120" y="535" width="310" height="50" as="geometry"/>
                </mxCell>
                <mxCell id="9" value="" style="rounded=0;whiteSpace=wrap;html=1;" parent="1" vertex="1">
                    <mxGeometry x="120" y="650" width="310" height="50" as="geometry"/>
                </mxCell>
                <mxCell id="10" value="B" style="text;html=1;resizable=0;autosize=1;align=center;verticalAlign=middle;points=[];fillColor=none;strokeColor=none;rounded=0;fontSize=24;" parent="1" vertex="1">
                    <mxGeometry x="55" y="161.6" width="30" height="30" as="geometry"/>
                </mxCell>
                <mxCell id="11" value="C" style="text;html=1;align=center;verticalAlign=middle;resizable=0;points=[];autosize=1;strokeColor=none;fillColor=none;fontSize=24;" parent="1" vertex="1">
                    <mxGeometry x="55" y="545" width="30" height="30" as="geometry"/>
                </mxCell>
                <mxCell id="12" value="D" style="text;html=1;align=center;verticalAlign=middle;resizable=0;points=[];autosize=1;strokeColor=none;fillColor=none;fontSize=24;" parent="1" vertex="1">
                    <mxGeometry x="55" y="670" width="30" height="30" as="geometry"/>
                </mxCell>
                <mxCell id="16" value="E" style="text;html=1;align=center;verticalAlign=middle;resizable=0;points=[];autosize=1;strokeColor=none;fillColor=none;fontSize=24;" parent="1" vertex="1">
                    <mxGeometry x="55" y="770" width="30" height="30" as="geometry"/>
                </mxCell>
                <mxCell id="19" value="&lt;font size=&quot;3&quot;&gt;0&lt;/font&gt;" style="text;html=1;align=center;verticalAlign=middle;resizable=0;points=[];autosize=1;strokeColor=none;fillColor=none;fontSize=24;" parent="1" vertex="1">
                    <mxGeometry x="125" y="325" width="20" height="40" as="geometry"/>
                </mxCell>
                <mxCell id="20" value="" style="endArrow=none;dashed=1;html=1;dashPattern=1 3;strokeWidth=2;fontSize=10;exitX=0.081;exitY=1;exitDx=0;exitDy=0;exitPerimeter=0;" parent="1" source="2" edge="1">
                    <mxGeometry width="50" height="50" relative="1" as="geometry">
                        <mxPoint x="250" y="250" as="sourcePoint"/>
                        <mxPoint x="145" y="320" as="targetPoint"/>
                    </mxGeometry>
                </mxCell>
                <mxCell id="21" value="&lt;span style=&quot;font-size: 12px&quot;&gt;网络号&lt;br&gt;(8位:7位自由)&lt;br&gt;&lt;/span&gt;" style="text;html=1;align=center;verticalAlign=middle;resizable=0;points=[];autosize=1;strokeColor=none;fillColor=none;fontSize=10;" parent="1" vertex="1">
                    <mxGeometry x="145" y="330" width="90" height="30" as="geometry"/>
                </mxCell>
                <mxCell id="22" value="" style="endArrow=none;html=1;fontSize=12;entryX=0.386;entryY=1.032;entryDx=0;entryDy=0;entryPerimeter=0;exitX=0.386;exitY=-0.024;exitDx=0;exitDy=0;exitPerimeter=0;" parent="1" source="2" target="2" edge="1">
                    <mxGeometry width="50" height="50" relative="1" as="geometry">
                        <mxPoint x="370" y="410" as="sourcePoint"/>
                        <mxPoint x="420" y="360" as="targetPoint"/>
                    </mxGeometry>
                </mxCell>
                <mxCell id="23" value="1" style="text;html=1;align=center;verticalAlign=middle;resizable=0;points=[];autosize=1;strokeColor=none;fillColor=none;fontSize=12;" parent="1" vertex="1">
                    <mxGeometry x="120" y="166.6" width="20" height="20" as="geometry"/>
                </mxCell>
                <mxCell id="25" value="" style="endArrow=none;dashed=1;html=1;fontSize=12;entryX=0.063;entryY=1.024;entryDx=0;entryDy=0;entryPerimeter=0;exitX=0.063;exitY=0.016;exitDx=0;exitDy=0;exitPerimeter=0;startArrow=none;" parent="1" source="26" target="7" edge="1">
                    <mxGeometry width="50" height="50" relative="1" as="geometry">
                        <mxPoint x="370" y="231.60000000000002" as="sourcePoint"/>
                        <mxPoint x="200" y="231.60000000000002" as="targetPoint"/>
                    </mxGeometry>
                </mxCell>
                <mxCell id="26" value="0" style="text;html=1;align=center;verticalAlign=middle;resizable=0;points=[];autosize=1;strokeColor=none;fillColor=none;fontSize=12;" parent="1" vertex="1">
                    <mxGeometry x="140" y="166.6" width="20" height="20" as="geometry"/>
                </mxCell>
                <mxCell id="27" value="" style="endArrow=none;dashed=1;html=1;fontSize=12;exitX=0.063;exitY=0.016;exitDx=0;exitDy=0;exitPerimeter=0;" parent="1" source="7" edge="1">
                    <mxGeometry width="50" height="50" relative="1" as="geometry">
                        <mxPoint x="139.52999999999997" y="152.39999999999995" as="sourcePoint"/>
                        <mxPoint x="140" y="201.60000000000002" as="targetPoint"/>
                    </mxGeometry>
                </mxCell>
                <mxCell id="28" value="" style="endArrow=none;dashed=1;html=1;fontSize=12;exitX=0.12;exitY=1.024;exitDx=0;exitDy=0;exitPerimeter=0;entryX=0.123;entryY=-0.032;entryDx=0;entryDy=0;entryPerimeter=0;" parent="1" source="7" target="7" edge="1">
                    <mxGeometry width="50" height="50" relative="1" as="geometry">
                        <mxPoint x="370" y="231.60000000000002" as="sourcePoint"/>
                        <mxPoint x="350" y="181.60000000000002" as="targetPoint"/>
                    </mxGeometry>
                </mxCell>
                <mxCell id="30" value="&lt;span style=&quot;font-size: 12px&quot;&gt;网络号&lt;br&gt;(16位:14位自由)&lt;br&gt;&lt;/span&gt;" style="text;html=1;align=center;verticalAlign=middle;resizable=0;points=[];autosize=1;strokeColor=none;fillColor=none;fontSize=10;" parent="1" vertex="1">
                    <mxGeometry x="155" y="166.6" width="100" height="30" as="geometry"/>
                </mxCell>
                <mxCell id="31" value="" style="endArrow=none;html=1;fontSize=12;entryX=0.5;entryY=0;entryDx=0;entryDy=0;exitX=0.5;exitY=1;exitDx=0;exitDy=0;" parent="1" source="7" target="7" edge="1">
                    <mxGeometry width="50" height="50" relative="1" as="geometry">
                        <mxPoint x="390" y="231.60000000000002" as="sourcePoint"/>
                        <mxPoint x="430" y="191.60000000000002" as="targetPoint"/>
                    </mxGeometry>
                </mxCell>
                <mxCell id="32" value="" style="endArrow=none;dashed=1;html=1;dashPattern=1 3;strokeWidth=2;fontSize=12;exitX=0.055;exitY=1.004;exitDx=0;exitDy=0;exitPerimeter=0;" parent="1" source="8" edge="1">
                    <mxGeometry width="50" height="50" relative="1" as="geometry">
                        <mxPoint x="155" y="585" as="sourcePoint"/>
                        <mxPoint x="137" y="530" as="targetPoint"/>
                    </mxGeometry>
                </mxCell>
                <mxCell id="33" value="1" style="text;html=1;align=center;verticalAlign=middle;resizable=0;points=[];autosize=1;strokeColor=none;fillColor=none;fontSize=12;" parent="1" vertex="1">
                    <mxGeometry x="120" y="550" width="20" height="20" as="geometry"/>
                </mxCell>
                <mxCell id="34" value="1" style="text;html=1;align=center;verticalAlign=middle;resizable=0;points=[];autosize=1;strokeColor=none;fillColor=none;fontSize=12;" parent="1" vertex="1">
                    <mxGeometry x="140" y="550" width="20" height="20" as="geometry"/>
                </mxCell>
                <mxCell id="35" value="" style="endArrow=none;dashed=1;html=1;dashPattern=1 3;strokeWidth=2;fontSize=12;exitX=0.13;exitY=0.988;exitDx=0;exitDy=0;exitPerimeter=0;entryX=0.13;entryY=-0.068;entryDx=0;entryDy=0;entryPerimeter=0;" parent="1" source="8" target="8" edge="1">
                    <mxGeometry width="50" height="50" relative="1" as="geometry">
                        <mxPoint x="380" y="520" as="sourcePoint"/>
                        <mxPoint x="430" y="470" as="targetPoint"/>
                    </mxGeometry>
                </mxCell>
                <mxCell id="36" value="0" style="text;html=1;align=center;verticalAlign=middle;resizable=0;points=[];autosize=1;strokeColor=none;fillColor=none;fontSize=12;" parent="1" vertex="1">
                    <mxGeometry x="160" y="550" width="20" height="20" as="geometry"/>
                </mxCell>
                <mxCell id="37" value="" style="endArrow=none;dashed=1;html=1;dashPattern=1 3;strokeWidth=2;fontSize=12;exitX=0.192;exitY=0.988;exitDx=0;exitDy=0;exitPerimeter=0;" parent="1" source="8" edge="1">
                    <mxGeometry width="50" height="50" relative="1" as="geometry">
                        <mxPoint x="380" y="520" as="sourcePoint"/>
                        <mxPoint x="180" y="530" as="targetPoint"/>
                    </mxGeometry>
                </mxCell>
                <mxCell id="38" value="&lt;span style=&quot;font-size: 12px&quot;&gt;网络号&lt;br&gt;(24位:21位自由)&lt;br&gt;&lt;/span&gt;" style="text;html=1;align=center;verticalAlign=middle;resizable=0;points=[];autosize=1;strokeColor=none;fillColor=none;fontSize=10;" parent="1" vertex="1">
                    <mxGeometry x="175" y="550" width="100" height="30" as="geometry"/>
                </mxCell>
                <mxCell id="39" value="" style="endArrow=none;html=1;fontSize=12;exitX=0.634;exitY=1.004;exitDx=0;exitDy=0;exitPerimeter=0;" parent="1" source="8" edge="1">
                    <mxGeometry width="50" height="50" relative="1" as="geometry">
                        <mxPoint x="380" y="520" as="sourcePoint"/>
                        <mxPoint x="317" y="530" as="targetPoint"/>
                    </mxGeometry>
                </mxCell>
                <mxCell id="40" value="1" style="text;html=1;align=center;verticalAlign=middle;resizable=0;points=[];autosize=1;strokeColor=none;fillColor=none;fontSize=12;" parent="1" vertex="1">
                    <mxGeometry x="120" y="665" width="20" height="20" as="geometry"/>
                </mxCell>
                <mxCell id="41" value="" style="endArrow=none;dashed=1;html=1;dashPattern=1 3;strokeWidth=2;fontSize=12;exitX=0.066;exitY=1.024;exitDx=0;exitDy=0;exitPerimeter=0;entryX=0.066;entryY=0;entryDx=0;entryDy=0;entryPerimeter=0;" parent="1" source="9" target="9" edge="1">
                    <mxGeometry width="50" height="50" relative="1" as="geometry">
                        <mxPoint x="380" y="620" as="sourcePoint"/>
                        <mxPoint x="430" y="570" as="targetPoint"/>
                    </mxGeometry>
                </mxCell>
                <mxCell id="42" value="1" style="text;html=1;align=center;verticalAlign=middle;resizable=0;points=[];autosize=1;strokeColor=none;fillColor=none;fontSize=12;" parent="1" vertex="1">
                    <mxGeometry x="140" y="665" width="20" height="20" as="geometry"/>
                </mxCell>
                <mxCell id="43" value="" style="endArrow=none;dashed=1;html=1;dashPattern=1 3;strokeWidth=2;fontSize=12;exitX=0.125;exitY=1.072;exitDx=0;exitDy=0;exitPerimeter=0;entryX=0.125;entryY=0;entryDx=0;entryDy=0;entryPerimeter=0;" parent="1" source="9" target="9" edge="1">
                    <mxGeometry width="50" height="50" relative="1" as="geometry">
                        <mxPoint x="380" y="620" as="sourcePoint"/>
                        <mxPoint x="430" y="570" as="targetPoint"/>
                    </mxGeometry>
                </mxCell>
                <mxCell id="44" value="1" style="text;html=1;align=center;verticalAlign=middle;resizable=0;points=[];autosize=1;strokeColor=none;fillColor=none;fontSize=12;" parent="1" vertex="1">
                    <mxGeometry x="160" y="665" width="20" height="20" as="geometry"/>
                </mxCell>
                <mxCell id="45" value="" style="endArrow=none;dashed=1;html=1;dashPattern=1 3;strokeWidth=2;fontSize=12;entryX=0.19;entryY=-0.048;entryDx=0;entryDy=0;entryPerimeter=0;" parent="1" target="9" edge="1">
                    <mxGeometry width="50" height="50" relative="1" as="geometry">
                        <mxPoint x="179" y="700" as="sourcePoint"/>
                        <mxPoint x="430" y="570" as="targetPoint"/>
                    </mxGeometry>
                </mxCell>
                <mxCell id="46" value="0" style="text;html=1;align=center;verticalAlign=middle;resizable=0;points=[];autosize=1;strokeColor=none;fillColor=none;fontSize=12;" parent="1" vertex="1">
                    <mxGeometry x="180" y="665" width="20" height="20" as="geometry"/>
                </mxCell>
                <mxCell id="47" value="" style="endArrow=none;dashed=1;html=1;dashPattern=1 3;strokeWidth=2;fontSize=12;exitX=0.25;exitY=1;exitDx=0;exitDy=0;entryX=0.25;entryY=0;entryDx=0;entryDy=0;" parent="1" source="9" target="9" edge="1">
                    <mxGeometry width="50" height="50" relative="1" as="geometry">
                        <mxPoint x="380" y="620" as="sourcePoint"/>
                        <mxPoint x="430" y="570" as="targetPoint"/>
                    </mxGeometry>
                </mxCell>
                <mxCell id="48" value="&lt;span style=&quot;font-size: 12px&quot;&gt;组播地址&lt;br&gt;(32位:28位自由)&lt;br&gt;&lt;/span&gt;" style="text;html=1;align=center;verticalAlign=middle;resizable=0;points=[];autosize=1;strokeColor=none;fillColor=none;fontSize=10;" parent="1" vertex="1">
                    <mxGeometry x="235" y="660" width="100" height="30" as="geometry"/>
                </mxCell>
                <mxCell id="57" value="1" style="text;html=1;align=center;verticalAlign=middle;resizable=0;points=[];autosize=1;strokeColor=none;fillColor=none;fontSize=12;" parent="1" vertex="1">
                    <mxGeometry x="120" y="780" width="20" height="20" as="geometry"/>
                </mxCell>
                <mxCell id="69" value="1&amp;nbsp; &amp;nbsp; &amp;nbsp; 1&amp;nbsp; &amp;nbsp; &amp;nbsp;1&amp;nbsp; &amp;nbsp;1&amp;nbsp;" style="rounded=0;whiteSpace=wrap;html=1;align=left;" parent="1" vertex="1">
                    <mxGeometry x="120" y="765" width="310" height="50" as="geometry"/>
                </mxCell>
                <mxCell id="70" value="" style="endArrow=none;dashed=1;html=1;dashPattern=1 3;strokeWidth=2;fontSize=12;" parent="1" edge="1">
                    <mxGeometry width="50" height="50" relative="1" as="geometry">
                        <mxPoint x="140" y="815" as="sourcePoint"/>
                        <mxPoint x="140" y="765" as="targetPoint"/>
                    </mxGeometry>
                </mxCell>
                <mxCell id="71" value="" style="endArrow=none;dashed=1;html=1;dashPattern=1 3;strokeWidth=2;fontSize=12;entryX=0.13;entryY=-0.076;entryDx=0;entryDy=0;entryPerimeter=0;" parent="1" target="69" edge="1">
                    <mxGeometry width="50" height="50" relative="1" as="geometry">
                        <mxPoint x="160" y="810" as="sourcePoint"/>
                        <mxPoint x="390" y="590" as="targetPoint"/>
                    </mxGeometry>
                </mxCell>
                <mxCell id="72" value="" style="endArrow=none;dashed=1;html=1;dashPattern=1 3;strokeWidth=2;fontSize=12;exitX=0.195;exitY=1.012;exitDx=0;exitDy=0;exitPerimeter=0;" parent="1" source="69" edge="1">
                    <mxGeometry width="50" height="50" relative="1" as="geometry">
                        <mxPoint x="340" y="640" as="sourcePoint"/>
                        <mxPoint x="180" y="760" as="targetPoint"/>
                    </mxGeometry>
                </mxCell>
                <mxCell id="73" value="" style="endArrow=none;dashed=1;html=1;dashPattern=1 3;strokeWidth=2;fontSize=12;exitX=0.25;exitY=1;exitDx=0;exitDy=0;entryX=0.25;entryY=0;entryDx=0;entryDy=0;" parent="1" source="69" target="69" edge="1">
                    <mxGeometry width="50" height="50" relative="1" as="geometry">
                        <mxPoint x="340" y="640" as="sourcePoint"/>
                        <mxPoint x="390" y="590" as="targetPoint"/>
                    </mxGeometry>
                </mxCell>
                <mxCell id="75" value="&lt;span style=&quot;font-size: 12px&quot;&gt;保留&lt;br&gt;(32位:28位自由)&lt;br&gt;&lt;/span&gt;" style="text;html=1;align=center;verticalAlign=middle;resizable=0;points=[];autosize=1;strokeColor=none;fillColor=none;fontSize=10;" parent="1" vertex="1">
                    <mxGeometry x="250" y="775" width="100" height="30" as="geometry"/>
                </mxCell>
                <mxCell id="76" value="主机 24位" style="text;html=1;align=center;verticalAlign=middle;resizable=0;points=[];autosize=1;strokeColor=none;fillColor=none;fontSize=12;" parent="1" vertex="1">
                    <mxGeometry x="300" y="335" width="70" height="20" as="geometry"/>
                </mxCell>
                <mxCell id="78" value="主机 8位" style="text;html=1;align=center;verticalAlign=middle;resizable=0;points=[];autosize=1;strokeColor=none;fillColor=none;fontSize=12;" parent="1" vertex="1">
                    <mxGeometry x="335" y="550" width="60" height="20" as="geometry"/>
                </mxCell>
                <mxCell id="79" value="" style="endArrow=none;html=1;entryX=0.75;entryY=0;entryDx=0;entryDy=0;" edge="1" parent="1" target="7">
                    <mxGeometry width="50" height="50" relative="1" as="geometry">
                        <mxPoint x="353" y="200" as="sourcePoint"/>
                        <mxPoint x="310" y="190" as="targetPoint"/>
                    </mxGeometry>
                </mxCell>
                <mxCell id="80" value="子网ID(8位)" style="text;html=1;align=center;verticalAlign=middle;resizable=0;points=[];autosize=1;strokeColor=none;fillColor=none;" vertex="1" parent="1">
                    <mxGeometry x="275" y="171.6" width="80" height="20" as="geometry"/>
                </mxCell>
                <mxCell id="81" value="主机ID(8位)" style="text;html=1;align=center;verticalAlign=middle;resizable=0;points=[];autosize=1;strokeColor=none;fillColor=none;" vertex="1" parent="1">
                    <mxGeometry x="350" y="171.6" width="80" height="20" as="geometry"/>
                </mxCell>
                <mxCell id="82" value="" style="shape=curlyBracket;whiteSpace=wrap;html=1;rounded=1;size=0.5;rotation=90;" vertex="1" parent="1">
                    <mxGeometry x="180" y="60" width="32.5" height="150" as="geometry"/>
                </mxCell>
                <mxCell id="83" value="集中分配" style="text;html=1;align=center;verticalAlign=middle;resizable=0;points=[];autosize=1;strokeColor=none;fillColor=none;" vertex="1" parent="1">
                    <mxGeometry x="166.25" y="90" width="60" height="20" as="geometry"/>
                </mxCell>
                <mxCell id="84" value="" style="shape=curlyBracket;whiteSpace=wrap;html=1;rounded=1;rotation=90;size=0.5;" vertex="1" parent="1">
                    <mxGeometry x="340.8" y="65.8" width="20" height="151.6" as="geometry"/>
                </mxCell>
                <mxCell id="85" value="站点本地管理" style="text;html=1;align=center;verticalAlign=middle;resizable=0;points=[];autosize=1;strokeColor=none;fillColor=none;" vertex="1" parent="1">
                    <mxGeometry x="295.8" y="100" width="90" height="20" as="geometry"/>
                </mxCell>
                <mxCell id="86" value="" style="endArrow=classic;html=1;" edge="1" parent="1">
                    <mxGeometry width="50" height="50" relative="1" as="geometry">
                        <mxPoint x="354" y="257.4" as="sourcePoint"/>
                        <mxPoint x="354" y="217.4" as="targetPoint"/>
                        <Array as="points">
                            <mxPoint x="354" y="237.4"/>
                        </Array>
                    </mxGeometry>
                </mxCell>
                <mxCell id="88" value="子网/主机的部分" style="text;html=1;align=center;verticalAlign=middle;resizable=0;points=[];autosize=1;strokeColor=none;fillColor=none;" vertex="1" parent="1">
                    <mxGeometry x="300.8" y="260" width="100" height="20" as="geometry"/>
                </mxCell>
            </root>
        </mxGraphModel>
    </diagram>
</mxfile>